<svg
        fill="none"
        height="16"
        viewBox="0 0 24 24"
        width="16"
        xmlns="http://www.w3.org/2000/svg"
>
    <g id="buttonIcon">
        <g id="url(#clip0_5661_1705)">
            <path
                    d="M7 6C7.26522 6 7.51957 5.89464 7.70711 5.70711C7.89464 5.51957 8 5.26522 8 5C8 4.73478 7.89464 4.48043 7.70711 4.29289C7.51957 4.10536 7.26522 4 7 4H5C4.73478 4 4.48043 4.10536 4.29289 4.29289C4.10536 4.48043 4 4.73478 4 5V19C4 19.2652 4.10536 19.5196 4.29289 19.7071C4.48043 19.8946 4.73478 20 5 20H7C7.26522 20 7.51957 19.8946 7.70711 19.7071C7.89464 19.5196 8 19.2652 8 19C8 18.7348 7.89464 18.4804 7.70711 18.2929C7.51957 18.1054 7.26522 18 7 18H6V6H7Z"
                    fill="white"
            />
            <path
                    d="M20.82 11.42L18 7.42C17.8471 7.20441 17.615 7.05814 17.3545 7.01317C17.0941 6.9682 16.8264 7.02818 16.61 7.18C16.5018 7.25579 16.4098 7.35224 16.3391 7.46381C16.2684 7.57537 16.2206 7.69982 16.1982 7.82999C16.1759 7.96015 16.1796 8.09344 16.2091 8.22217C16.2386 8.3509 16.2933 8.47252 16.37 8.58L18.09 11H10C9.73478 11 9.48043 11.1054 9.29289 11.2929C9.10536 11.4804 9 11.7348 9 12C9 12.2652 9.10536 12.5196 9.29289 12.7071C9.48043 12.8946 9.73478 13 10 13H18L16.2 15.4C16.1212 15.5051 16.0639 15.6246 16.0313 15.7518C15.9987 15.879 15.9915 16.0114 16.01 16.1414C16.0286 16.2714 16.0726 16.3965 16.1395 16.5095C16.2064 16.6225 16.2949 16.7212 16.4 16.8C16.5731 16.9298 16.7836 17 17 17C17.1552 17 17.3084 16.9639 17.4472 16.8944C17.5861 16.825 17.7069 16.7242 17.8 16.6L20.8 12.6C20.9281 12.4309 20.999 12.2254 21.0026 12.0133C21.0062 11.8011 20.9423 11.5934 20.82 11.42Z"
                    fill="white"
            />
        </g>
        <defs>
            <clipPath id="clip0_5661_1705">
                <rect fill="white" height="24" width="24"/>
            </clipPath>
        </defs>
    </g>
    <g id="eyeOutline">
        <g clip-path="url(#clip0_5661_2350)">
            <path d="M18.225 9.58334C17.6917 8.65834 14.7583 4.01667 9.77501 4.16667C5.16667 4.28334 2.50001 8.33334 1.77501 9.58334C1.70187 9.71002 1.66336 9.85372 1.66336 10C1.66336 10.1463 1.70187 10.29 1.77501 10.4167C2.30001 11.325 5.10834 15.8333 10.0167 15.8333H10.225C14.8333 15.7167 17.5083 11.6667 18.225 10.4167C18.2981 10.29 18.3367 10.1463 18.3367 10C18.3367 9.85372 18.2981 9.71002 18.225 9.58334ZM10.1833 14.1667C6.59167 14.25 4.25001 11.175 3.51667 10C4.35001 8.65834 6.52501 5.91667 9.85834 5.83334C13.4333 5.74167 15.7833 8.82501 16.525 10C15.6667 11.3417 13.5167 14.0833 10.1833 14.1667Z"
                  fill="white"/>
            <path d="M10 7.08334C9.42315 7.08334 8.85924 7.2544 8.3796 7.57489C7.89995 7.89538 7.52612 8.3509 7.30536 8.88385C7.08461 9.4168 7.02685 10.0032 7.13939 10.569C7.25193 11.1348 7.52971 11.6545 7.93762 12.0624C8.34552 12.4703 8.86522 12.7481 9.431 12.8606C9.99678 12.9732 10.5832 12.9154 11.1162 12.6947C11.6491 12.4739 12.1046 12.1001 12.4251 11.6204C12.7456 11.1408 12.9167 10.5769 12.9167 10C12.9167 9.22646 12.6094 8.4846 12.0624 7.93762C11.5154 7.39063 10.7736 7.08334 10 7.08334ZM10 11.25C9.75279 11.25 9.51111 11.1767 9.30555 11.0393C9.09999 10.902 8.93977 10.7068 8.84516 10.4784C8.75055 10.25 8.7258 9.99862 8.77403 9.75615C8.82226 9.51367 8.94131 9.29094 9.11613 9.11613C9.29094 8.94131 9.51367 8.82226 9.75615 8.77403C9.99862 8.7258 10.25 8.75055 10.4784 8.84516C10.7068 8.93977 10.902 9.09999 11.0393 9.30555C11.1767 9.51111 11.25 9.75278 11.25 10C11.25 10.3315 11.1183 10.6495 10.8839 10.8839C10.6495 11.1183 10.3315 11.25 10 11.25Z"
                  fill="white"/>
        </g>
        <defs>
            <clipPath id="clip0_5661_2350">
                <rect width="20" height="20" fill="white"/>
            </clipPath>
        </defs>

    </g>
    <g id="eyeOutlineOff">
        <g clip-path="url(#clip0_5661_1736)">
            <path d="M4.71 3.29C4.61676 3.19676 4.50607 3.1228 4.38425 3.07234C4.26243 3.02188 4.13186 2.99591 4 2.99591C3.86814 2.99591 3.73757 3.02188 3.61575 3.07234C3.49393 3.1228 3.38324 3.19676 3.29 3.29C3.10169 3.47831 2.99591 3.7337 2.99591 4C2.99591 4.2663 3.10169 4.5217 3.29 4.71L8.92 10.34C8.5638 11.0026 8.43058 11.7624 8.54009 12.5067C8.64959 13.2509 8.99599 13.9401 9.52794 14.4721C10.0599 15.004 10.7491 15.3504 11.4934 15.4599C12.2376 15.5694 12.9974 15.4362 13.66 15.08L19.29 20.71C19.383 20.8037 19.4936 20.8781 19.6154 20.9289C19.7373 20.9797 19.868 21.0058 20 21.0058C20.132 21.0058 20.2627 20.9797 20.3846 20.9289C20.5064 20.8781 20.617 20.8037 20.71 20.71C20.8037 20.617 20.8781 20.5064 20.9289 20.3846C20.9797 20.2627 21.0058 20.132 21.0058 20C21.0058 19.868 20.9797 19.7373 20.9289 19.6154C20.8781 19.4936 20.8037 19.383 20.71 19.29L4.71 3.29ZM12 13.5C11.6022 13.5 11.2206 13.342 10.9393 13.0607C10.658 12.7794 10.5 12.3978 10.5 12V11.93L12.06 13.49L12 13.5Z"
                  fill="white"/>
            <path d="M12.22 17C7.92 17.1 5.1 13.41 4.22 12C4.84647 11.0007 5.59936 10.0865 6.46 9.27999L5 7.87C3.87133 8.93347 2.90441 10.1564 2.13 11.5C2.04223 11.652 1.99603 11.8245 1.99603 12C1.99603 12.1755 2.04223 12.348 2.13 12.5C2.76 13.59 6.13 19 12.02 19H12.27C13.3775 18.9671 14.4708 18.7404 15.5 18.33L13.92 16.75C13.3644 16.8962 12.7942 16.98 12.22 17Z"
                  fill="white"/>
            <path d="M21.87 11.5C21.23 10.39 17.7 4.81999 11.73 4.99999C10.6225 5.03285 9.52924 5.25961 8.5 5.66999L10.08 7.24999C10.6356 7.10382 11.2058 7.01997 11.78 6.99999C16.07 6.88999 18.89 10.59 19.78 12C19.1381 13.0023 18.3682 13.9167 17.49 14.72L19 16.13C20.1428 15.0693 21.1234 13.8462 21.91 12.5C21.9918 12.3445 22.0311 12.1702 22.0241 11.9946C22.0171 11.8191 21.9639 11.6485 21.87 11.5Z"
                  fill="white"/>
        </g>
        <defs>
            <clipPath id="clip0_5661_1736">
                <rect width="20" height="20" fill="white"/>
            </clipPath>
        </defs>

    </g>
    <g id="search">
        <path d="M15.2583 14.075L12.425 11.25C13.3392 10.0854 13.8352 8.64721 13.8333 7.16667C13.8333 5.84813 13.4423 4.5592 12.7098 3.46287C11.9773 2.36654 10.9361 1.51206 9.71789 1.00747C8.49972 0.502889 7.15927 0.370866 5.86607 0.628101C4.57286 0.885336 3.38497 1.52027 2.45262 2.45262C1.52027 3.38497 0.885336 4.57286 0.628101 5.86607C0.370866 7.15927 0.502889 8.49972 1.00747 9.71789C1.51206 10.9361 2.36654 11.9773 3.46287 12.7098C4.5592 13.4423 5.84813 13.8333 7.16667 13.8333C8.64721 13.8352 10.0854 13.3392 11.25 12.425L14.075 15.2583C14.1525 15.3364 14.2446 15.3984 14.3462 15.4407C14.4477 15.4831 14.5567 15.5048 14.6667 15.5048C14.7767 15.5048 14.8856 15.4831 14.9871 15.4407C15.0887 15.3984 15.1809 15.3364 15.2583 15.2583C15.3364 15.1809 15.3984 15.0887 15.4407 14.9871C15.4831 14.8856 15.5048 14.7767 15.5048 14.6667C15.5048 14.5567 15.4831 14.4477 15.4407 14.3462C15.3984 14.2446 15.3364 14.1525 15.2583 14.075ZM2.16667 7.16667C2.16667 6.17776 2.45991 5.21106 3.00932 4.38882C3.55873 3.56657 4.33962 2.92571 5.25325 2.54727C6.16688 2.16883 7.17222 2.06982 8.14212 2.26274C9.11203 2.45567 10.0029 2.93187 10.7022 3.63114C11.4015 4.3304 11.8777 5.22131 12.0706 6.19122C12.2635 7.16112 12.1645 8.16646 11.7861 9.08009C11.4076 9.99372 10.7668 10.7746 9.94452 11.324C9.12227 11.8734 8.15558 12.1667 7.16667 12.1667C5.84059 12.1667 4.56882 11.6399 3.63114 10.7022C2.69345 9.76452 2.16667 8.49275 2.16667 7.16667Z"
              fill="#808080"/>
    </g>
    <g id="person">
        <path d="M7.99998 7.33431C8.5274 7.33431 9.04297 7.17791 9.4815 6.8849C9.92003 6.59188 10.2618 6.1754 10.4637 5.68813C10.6655 5.20086 10.7183 4.66469 10.6154 4.1474C10.5125 3.63012 10.2585 3.15497 9.8856 2.78203C9.51266 2.40909 9.0375 2.15511 8.52022 2.05222C8.00294 1.94932 7.46676 2.00213 6.97949 2.20397C6.49222 2.4058 6.07574 2.74759 5.78273 3.18612C5.48971 3.62465 5.33331 4.14023 5.33331 4.66764C5.33331 5.37489 5.61426 6.05317 6.11436 6.55326C6.61446 7.05336 7.29274 7.33431 7.99998 7.33431ZM7.99998 3.33431C8.26369 3.33431 8.52147 3.41251 8.74074 3.55902C8.96001 3.70553 9.1309 3.91376 9.23182 4.1574C9.33274 4.40103 9.35914 4.66912 9.30769 4.92776C9.25625 5.18641 9.12926 5.42398 8.94279 5.61045C8.75632 5.79692 8.51874 5.92391 8.2601 5.97536C8.00146 6.0268 7.73337 6.0004 7.48974 5.89948C7.2461 5.79857 7.03786 5.62767 6.89135 5.4084C6.74485 5.18914 6.66665 4.93135 6.66665 4.66764C6.66665 4.31402 6.80712 3.97488 7.05717 3.72484C7.30722 3.47479 7.64636 3.33431 7.99998 3.33431Z" fill="white"/>
        <path d="M7.99998 8.66748C6.7623 8.66748 5.57532 9.15915 4.70015 10.0343C3.82498 10.9095 3.33331 12.0965 3.33331 13.3341C3.33331 13.511 3.40355 13.6805 3.52858 13.8056C3.6536 13.9306 3.82317 14.0008 3.99998 14.0008C4.17679 14.0008 4.34636 13.9306 4.47138 13.8056C4.59641 13.6805 4.66665 13.511 4.66665 13.3341C4.66665 12.4501 5.01784 11.6022 5.64296 10.9771C6.26808 10.352 7.11592 10.0008 7.99998 10.0008C8.88403 10.0008 9.73188 10.352 10.357 10.9771C10.9821 11.6022 11.3333 12.4501 11.3333 13.3341C11.3333 13.511 11.4036 13.6805 11.5286 13.8056C11.6536 13.9306 11.8232 14.0008 12 14.0008C12.1768 14.0008 12.3464 13.9306 12.4714 13.8056C12.5964 13.6805 12.6666 13.511 12.6666 13.3341C12.6666 12.0965 12.175 10.9095 11.2998 10.0343C10.4246 9.15915 9.23766 8.66748 7.99998 8.66748Z" fill="white"/>
    </g>
    <g id="logOut">
        <path d="M4.66669 4.00081C4.8435 4.00081 5.01307 3.93058 5.13809 3.80555C5.26312 3.68053 5.33335 3.51096 5.33335 3.33415C5.33335 3.15734 5.26312 2.98777 5.13809 2.86274C5.01307 2.73772 4.8435 2.66748 4.66669 2.66748H3.33335C3.15654 2.66748 2.98697 2.73772 2.86195 2.86274C2.73693 2.98777 2.66669 3.15734 2.66669 3.33415V12.6675C2.66669 12.8443 2.73693 13.0139 2.86195 13.1389C2.98697 13.2639 3.15654 13.3341 3.33335 13.3341H4.66669C4.8435 13.3341 5.01307 13.2639 5.13809 13.1389C5.26312 13.0139 5.33335 12.8443 5.33335 12.6675C5.33335 12.4907 5.26312 12.3211 5.13809 12.1961C5.01307 12.0711 4.8435 12.0008 4.66669 12.0008H4.00002V4.00081H4.66669Z" fill="white"/>
        <path d="M13.88 7.61411L12 4.94745C11.898 4.80372 11.7433 4.70621 11.5697 4.67623C11.396 4.64625 11.2176 4.68623 11.0733 4.78745C11.0012 4.83797 10.9399 4.90228 10.8927 4.97665C10.8456 5.05103 10.8137 5.134 10.7988 5.22077C10.784 5.30755 10.7864 5.39641 10.8061 5.48223C10.8257 5.56805 10.8622 5.64913 10.9133 5.72078L12.06 7.33411H6.66667C6.48986 7.33411 6.32029 7.40435 6.19526 7.52938C6.07024 7.6544 6 7.82397 6 8.00078C6 8.17759 6.07024 8.34716 6.19526 8.47219C6.32029 8.59721 6.48986 8.66745 6.66667 8.66745H12L10.8 10.2674C10.7475 10.3375 10.7093 10.4172 10.6875 10.502C10.6658 10.5868 10.661 10.6751 10.6734 10.7617C10.6857 10.8484 10.7151 10.9318 10.7597 11.0071C10.8043 11.0824 10.8633 11.1483 10.9333 11.2008C11.0487 11.2873 11.1891 11.3341 11.3333 11.3341C11.4368 11.3341 11.5389 11.31 11.6315 11.2637C11.724 11.2174 11.8046 11.1502 11.8667 11.0674L13.8667 8.40078C13.952 8.28803 13.9994 8.15104 14.0018 8.00962C14.0041 7.86821 13.9615 7.7297 13.88 7.61411Z" fill="white"/>
    </g>
    <g id="playCircle">
        <path d="M8 1.33447C6.68146 1.33447 5.39252 1.72547 4.2962 2.45801C3.19987 3.19055 2.34539 4.23174 1.8408 5.44992C1.33622 6.66809 1.20419 8.00853 1.46143 9.30174C1.71866 10.5949 2.3536 11.7828 3.28595 12.7152C4.2183 13.6475 5.40619 14.2825 6.6994 14.5397C7.9926 14.7969 9.33305 14.6649 10.5512 14.1603C11.7694 13.6558 12.8106 12.8013 13.5431 11.7049C14.2757 10.6086 14.6667 9.31968 14.6667 8.00114C14.6667 7.12566 14.4942 6.25875 14.1592 5.44992C13.8242 4.64108 13.3331 3.90615 12.714 3.28709C12.095 2.66804 11.3601 2.17697 10.5512 1.84194C9.74238 1.50691 8.87548 1.33447 8 1.33447ZM8 13.3345C6.94516 13.3345 5.91402 13.0217 5.03696 12.4356C4.15989 11.8496 3.47631 11.0167 3.07264 10.0421C2.66897 9.06758 2.56336 7.99522 2.76914 6.96066C2.97493 5.92609 3.48288 4.97578 4.22876 4.2299C4.97464 3.48402 5.92495 2.97607 6.95952 2.77028C7.99408 2.5645 9.06644 2.67011 10.041 3.07378C11.0155 3.47745 11.8485 4.16104 12.4345 5.0381C13.0205 5.91516 13.3333 6.94631 13.3333 8.00114C13.3333 9.41563 12.7714 10.7722 11.7712 11.7724C10.771 12.7726 9.41449 13.3345 8 13.3345Z" fill="white"/>
        <path d="M8.22666 4.9674C8.06331 4.81687 7.85932 4.71765 7.64004 4.68209C7.42077 4.64654 7.19588 4.6762 6.99333 4.7674C6.7967 4.84694 6.62825 4.9833 6.5095 5.15905C6.39075 5.3348 6.32709 5.54196 6.32666 5.75407V10.2474C6.32709 10.4595 6.39075 10.6667 6.5095 10.8424C6.62825 11.0182 6.7967 11.1545 6.99333 11.2341C7.13784 11.2996 7.29464 11.3337 7.45333 11.3341C7.73927 11.3328 8.01467 11.226 8.22666 11.0341L10.6667 8.7874C10.7758 8.68747 10.8629 8.56593 10.9226 8.43049C10.9822 8.29506 11.013 8.14871 11.013 8.00074C11.013 7.85276 10.9822 7.70641 10.9226 7.57098C10.8629 7.43555 10.7758 7.314 10.6667 7.21407L8.22666 4.9674ZM7.66666 9.73407V6.2674L9.53999 8.00074L7.66666 9.73407Z" fill="white"/>
    </g>
    <g id="edit2">
        <path d="M12.6667 13.3345H3.33334C3.15653 13.3345 2.98696 13.4047 2.86193 13.5297C2.73691 13.6548 2.66667 13.8243 2.66667 14.0011C2.66667 14.178 2.73691 14.3475 2.86193 14.4725C2.98696 14.5976 3.15653 14.6678 3.33334 14.6678H12.6667C12.8435 14.6678 13.0131 14.5976 13.1381 14.4725C13.2631 14.3475 13.3333 14.178 13.3333 14.0011C13.3333 13.8243 13.2631 13.6548 13.1381 13.5297C13.0131 13.4047 12.8435 13.3345 12.6667 13.3345Z" fill="white"/>
        <path d="M3.33333 12.0012H3.39333L6.17333 11.7479C6.47786 11.7175 6.76269 11.5834 6.98 11.3679L12.98 5.36787C13.2129 5.12185 13.3387 4.79355 13.33 4.4549C13.3212 4.11625 13.1786 3.79488 12.9333 3.56121L11.1067 1.73454C10.8683 1.5106 10.5559 1.38211 10.2289 1.37351C9.90191 1.3649 9.58319 1.47679 9.33333 1.68787L3.33333 7.68787C3.11784 7.90518 2.98367 8.19001 2.95333 8.49454L2.66667 11.2745C2.65769 11.3722 2.67036 11.4706 2.70377 11.5628C2.73719 11.655 2.79053 11.7387 2.86 11.8079C2.92229 11.8697 2.99617 11.9185 3.0774 11.9517C3.15862 11.9849 3.2456 12.0017 3.33333 12.0012ZM10.18 2.66787L12 4.48787L10.6667 5.78787L8.88 4.00121L10.18 2.66787ZM4.24667 8.60787L8 4.88121L9.8 6.68121L6.06667 10.4145L4.06667 10.6012L4.24667 8.60787Z" fill="white"/>
    </g>
    <g id="edit3">
        <path d="M12.6667 13.3345H3.33334C3.15653 13.3345 2.98696 13.4047 2.86193 13.5297C2.73691 13.6548 2.66667 13.8243 2.66667 14.0011C2.66667 14.178 2.73691 14.3475 2.86193 14.4725C2.98696 14.5976 3.15653 14.6678 3.33334 14.6678H12.6667C12.8435 14.6678 13.0131 14.5976 13.1381 14.4725C13.2631 14.3475 13.3333 14.178 13.3333 14.0011C13.3333 13.8243 13.2631 13.6548 13.1381 13.5297C13.0131 13.4047 12.8435 13.3345 12.6667 13.3345Z" fill="#808080"/>
        <path d="M3.33333 12.0012H3.39333L6.17333 11.7479C6.47786 11.7175 6.76269 11.5834 6.98 11.3679L12.98 5.36787C13.2129 5.12185 13.3387 4.79355 13.33 4.4549C13.3212 4.11625 13.1786 3.79488 12.9333 3.56121L11.1067 1.73454C10.8683 1.5106 10.5559 1.38211 10.2289 1.37351C9.90191 1.3649 9.58319 1.47679 9.33333 1.68787L3.33333 7.68787C3.11784 7.90518 2.98367 8.19001 2.95333 8.49454L2.66667 11.2745C2.65769 11.3722 2.67036 11.4706 2.70377 11.5628C2.73719 11.655 2.79053 11.7387 2.86 11.8079C2.92229 11.8697 2.99617 11.9185 3.0774 11.9517C3.15862 11.9849 3.2456 12.0017 3.33333 12.0012ZM10.18 2.66787L12 4.48787L10.6667 5.78787L8.88 4.00121L10.18 2.66787ZM4.24667 8.60787L8 4.88121L9.8 6.68121L6.06667 10.4145L4.06667 10.6012L4.24667 8.60787Z" fill="#808080"/>
    </g>
    <g id="trash">
        <path d="M14 4.00108H10.6667V2.88775C10.651 2.46096 10.4668 2.05779 10.1544 1.76661C9.84195 1.47543 9.42683 1.32001 9 1.33442H7C6.57316 1.32001 6.15804 1.47543 5.84561 1.76661C5.53319 2.05779 5.34897 2.46096 5.33333 2.88775V4.00108H1.99999C1.82318 4.00108 1.65361 4.07132 1.52859 4.19634C1.40357 4.32137 1.33333 4.49094 1.33333 4.66775C1.33333 4.84456 1.40357 5.01413 1.52859 5.13915C1.65361 5.26418 1.82318 5.33441 1.99999 5.33441H2.66666V12.6677C2.66666 13.1982 2.87738 13.7069 3.25245 14.082C3.62752 14.457 4.13623 14.6677 4.66666 14.6677H11.3333C11.8638 14.6677 12.3725 14.457 12.7475 14.082C13.1226 13.7069 13.3333 13.1982 13.3333 12.6677V5.33441H14C14.1768 5.33441 14.3464 5.26418 14.4714 5.13915C14.5964 5.01413 14.6667 4.84456 14.6667 4.66775C14.6667 4.49094 14.5964 4.32137 14.4714 4.19634C14.3464 4.07132 14.1768 4.00108 14 4.00108ZM6.66666 2.88775C6.66666 2.78108 6.80666 2.66775 7 2.66775H9C9.19333 2.66775 9.33333 2.78108 9.33333 2.88775V4.00108H6.66666V2.88775ZM12 12.6677C12 12.8446 11.9298 13.0141 11.8047 13.1392C11.6797 13.2642 11.5101 13.3344 11.3333 13.3344H4.66666C4.48985 13.3344 4.32028 13.2642 4.19526 13.1392C4.07023 13.0141 3.99999 12.8446 3.99999 12.6677V5.33441H12V12.6677Z" fill="white"/>
    </g>
    <g id="trash2">
        <path d="M14 4.00108H10.6667V2.88775C10.651 2.46096 10.4668 2.05779 10.1544 1.76661C9.84195 1.47543 9.42683 1.32001 9 1.33442H7C6.57316 1.32001 6.15804 1.47543 5.84561 1.76661C5.53319 2.05779 5.34897 2.46096 5.33333 2.88775V4.00108H1.99999C1.82318 4.00108 1.65361 4.07132 1.52859 4.19634C1.40357 4.32137 1.33333 4.49094 1.33333 4.66775C1.33333 4.84456 1.40357 5.01413 1.52859 5.13915C1.65361 5.26418 1.82318 5.33441 1.99999 5.33441H2.66666V12.6677C2.66666 13.1982 2.87738 13.7069 3.25245 14.082C3.62752 14.457 4.13623 14.6677 4.66666 14.6677H11.3333C11.8638 14.6677 12.3725 14.457 12.7475 14.082C13.1226 13.7069 13.3333 13.1982 13.3333 12.6677V5.33441H14C14.1768 5.33441 14.3464 5.26418 14.4714 5.13915C14.5964 5.01413 14.6667 4.84456 14.6667 4.66775C14.6667 4.49094 14.5964 4.32137 14.4714 4.19634C14.3464 4.07132 14.1768 4.00108 14 4.00108ZM6.66666 2.88775C6.66666 2.78108 6.80666 2.66775 7 2.66775H9C9.19333 2.66775 9.33333 2.78108 9.33333 2.88775V4.00108H6.66666V2.88775ZM12 12.6677C12 12.8446 11.9298 13.0141 11.8047 13.1392C11.6797 13.2642 11.5101 13.3344 11.3333 13.3344H4.66666C4.48985 13.3344 4.32028 13.2642 4.19526 13.1392C4.07023 13.0141 3.99999 12.8446 3.99999 12.6677V5.33441H12V12.6677Z" fill="#808080"/>
    </g>
    <g id="moreVerticalOutline">
        <circle cx="12" cy="12" r="8.5" stroke="white"/>
        <g clip-path="url(#clip0_52363_14059)">
            <path d="M12 13C12.5523 13 13 12.5523 13 12C13 11.4477 12.5523 11 12 11C11.4477 11 11 11.4477 11 12C11 12.5523 11.4477 13 12 13Z" fill="white"/>
            <path d="M12 9.5C12.5523 9.5 13 9.05228 13 8.5C13 7.94772 12.5523 7.5 12 7.5C11.4477 7.5 11 7.94772 11 8.5C11 9.05228 11.4477 9.5 12 9.5Z" fill="white"/>
            <path d="M12 16.5C12.5523 16.5 13 16.0523 13 15.5C13 14.9477 12.5523 14.5 12 14.5C11.4477 14.5 11 14.9477 11 15.5C11 16.0523 11.4477 16.5 12 16.5Z" fill="white"/>
        </g>
        <defs>
            <clipPath id="clip0_52363_14059">
                <rect width="12" height="12" fill="white" transform="translate(6 6)"/>
            </clipPath>
        </defs>
    </g>
    <g id="chooseFile">
        <svg width="24" height="24" viewBox="0 0 24 24" fill="none" xmlns="http://www.w3.org/2000/svg">
            <g clip-path="url(#clip0_5661_1676)">
                <path d="M18 3H6C5.20435 3 4.44129 3.31607 3.87868 3.87868C3.31607 4.44129 3 5.20435 3 6V18C3 18.7956 3.31607 19.5587 3.87868 20.1213C4.44129 20.6839 5.20435 21 6 21H18C18.7956 21 19.5587 20.6839 20.1213 20.1213C20.6839 19.5587 21 18.7956 21 18V6C21 5.20435 20.6839 4.44129 20.1213 3.87868C19.5587 3.31607 18.7956 3 18 3ZM6 5H18C18.2652 5 18.5196 5.10536 18.7071 5.29289C18.8946 5.48043 19 5.73478 19 6V14.36L15.8 11.63C15.3042 11.222 14.6821 10.999 14.04 10.999C13.3979 10.999 12.7758 11.222 12.28 11.63L5 17.7V6C5 5.73478 5.10536 5.48043 5.29289 5.29289C5.48043 5.10536 5.73478 5 6 5ZM18 19H6.56L13.56 13.16C13.6945 13.0602 13.8575 13.0062 14.025 13.0062C14.1925 13.0062 14.3555 13.0602 14.49 13.16L19 17V18C19 18.2652 18.8946 18.5196 18.7071 18.7071C18.5196 18.8946 18.2652 19 18 19Z" fill="white"/>
                <path d="M8 10C8.82843 10 9.5 9.32843 9.5 8.5C9.5 7.67157 8.82843 7 8 7C7.17157 7 6.5 7.67157 6.5 8.5C6.5 9.32843 7.17157 10 8 10Z" fill="white"/>
            </g>
            <defs>
                <clipPath id="clip0_5661_1676">
                    <rect width="24" height="24" fill="white"/>
                </clipPath>
            </defs>
        </svg>

    </g>

    <g id="keyboardArrowLeft">
        <svg width="24" height="24" viewBox="0 0 24 24" fill="none" xmlns="http://www.w3.org/2000/svg">
            <path d="M13.83 19C13.6806 19.0005 13.533 18.9675 13.398 18.9035C13.263 18.8395 13.1441 18.746 13.05 18.63L8.22 12.63C8.07292 12.4511 7.99251 12.2266 7.99251 11.995C7.99251 11.7634 8.07292 11.5389 8.22 11.36L13.22 5.36C13.3897 5.15578 13.6336 5.02736 13.8981 5.00298C14.1625 4.9786 14.4258 5.06026 14.63 5.23C14.8342 5.39974 14.9626 5.64365 14.987 5.90808C15.0114 6.1725 14.9297 6.43578 14.76 6.64L10.29 12L14.61 17.36C14.7323 17.5068 14.81 17.6855 14.8338 17.8751C14.8577 18.0646 14.8268 18.257 14.7447 18.4296C14.6627 18.6021 14.5329 18.7475 14.3708 18.8486C14.2087 18.9497 14.021 19.0022 13.83 19Z" fill="white"/>
        </svg>
    </g>
    <g id="keyboardArrowRight">
        <svg width="24" height="24" viewBox="0 0 24 24" fill="none" xmlns="http://www.w3.org/2000/svg">
            <g clip-path="url(#clip0_5661_1749)">
                <path d="M10 19C9.76635 19.0005 9.53991 18.9191 9.36 18.77C9.25874 18.6861 9.17504 18.583 9.11369 18.4666C9.05233 18.3503 9.01454 18.223 9.00246 18.092C8.99039 17.961 9.00427 17.8289 9.04331 17.7033C9.08236 17.5777 9.1458 17.4611 9.23 17.36L13.71 12L9.39 6.63C9.30693 6.52771 9.2449 6.41002 9.20747 6.28368C9.17004 6.15734 9.15794 6.02485 9.17188 5.89382C9.18582 5.76279 9.22552 5.63581 9.28869 5.52017C9.35187 5.40454 9.43727 5.30252 9.54 5.22C9.64346 5.12897 9.76463 5.0603 9.89589 5.01831C10.0272 4.97632 10.1657 4.96192 10.3028 4.976C10.4399 4.99009 10.5726 5.03236 10.6925 5.10016C10.8125 5.16796 10.9172 5.25983 11 5.37L15.83 11.37C15.9771 11.5489 16.0575 11.7734 16.0575 12.005C16.0575 12.2366 15.9771 12.4611 15.83 12.64L10.83 18.64C10.7297 18.761 10.6022 18.8567 10.458 18.9192C10.3138 18.9818 10.1569 19.0095 10 19Z" fill="white"/>
            </g>
            <defs>
                <clipPath id="clip0_5661_1749">
                    <rect width="24" height="24" fill="white"/>
                </clipPath>
            </defs>
        </svg>

    </g>
    <g id="backArrow">
        <svg width="16" height="16" viewBox="0 0 16 16" fill="none" xmlns="http://www.w3.org/2000/svg">
            <path d="M15 6H3.14L6.77 1.64C6.93974 1.43578 7.0214 1.1725 6.99702 0.908077C6.97264 0.643651 6.84422 0.39974 6.64 0.230001C6.43578 0.0602625 6.1725 -0.0213994 5.90808 0.00298028C5.64365 0.02736 5.39974 0.155784 5.23 0.360001L0.23 6.36C0.196361 6.40772 0.166279 6.45786 0.14 6.51C0.14 6.56 0.14 6.59 0.0700002 6.64C0.0246737 6.75466 0.000941121 6.87671 0 7C0.000941121 7.12329 0.0246737 7.24534 0.0700002 7.36C0.0700002 7.41 0.0699999 7.44 0.14 7.49C0.166279 7.54214 0.196361 7.59228 0.23 7.64L5.23 13.64C5.32402 13.7529 5.44176 13.8437 5.57485 13.9059C5.70793 13.9681 5.85309 14.0002 6 14C6.23365 14.0005 6.46009 13.9191 6.64 13.77C6.74126 13.6861 6.82496 13.583 6.88631 13.4666C6.94766 13.3503 6.98546 13.2229 6.99754 13.092C7.00961 12.961 6.99573 12.8289 6.95669 12.7033C6.91764 12.5777 6.8542 12.4611 6.77 12.36L3.14 8H15C15.2652 8 15.5196 7.89464 15.7071 7.70711C15.8946 7.51957 16 7.26522 16 7C16 6.73478 15.8946 6.48043 15.7071 6.29289C15.5196 6.10536 15.2652 6 15 6Z" fill="white"/>
        </svg>
    </g>
    <g id="arrowUp">
        <svg width="8" height="4" viewBox="0 0 8 4" fill="none" xmlns="http://www.w3.org/2000/svg">
            <path d="M7.77072 3.25718C7.77095 3.374 7.73026 3.48722 7.65572 3.57718C7.61375 3.62781 7.5622 3.66966 7.50402 3.70033C7.44585 3.73101 7.3822 3.74991 7.31671 3.75594C7.25122 3.76198 7.18518 3.75504 7.12238 3.73552C7.05958 3.716 7.00125 3.68428 6.95072 3.64218L4.27072 1.40218L1.58572 3.56218C1.53458 3.60371 1.47573 3.63473 1.41256 3.65344C1.34939 3.67216 1.28315 3.6782 1.21763 3.67123C1.15212 3.66426 1.08863 3.64442 1.03081 3.61283C0.972989 3.58124 0.921984 3.53854 0.880722 3.48718C0.835204 3.43544 0.80087 3.37486 0.779876 3.30923C0.758881 3.2436 0.751679 3.17434 0.758722 3.10579C0.765764 3.03724 0.786899 2.97089 0.8208 2.9109C0.854701 2.85091 0.900636 2.79857 0.955722 2.75718L3.95572 0.342177C4.04519 0.268636 4.15741 0.228433 4.27322 0.228433C4.38903 0.228433 4.50126 0.268636 4.59072 0.342177L7.59072 2.84218C7.65123 2.89234 7.69906 2.95605 7.73034 3.02816C7.76161 3.10026 7.77545 3.17872 7.77072 3.25718Z" fill="white"/>
        </svg>
    </g>
    <g id="arrowDown">
        <svg width="8" height="4" viewBox="0 0 15 8" fill="none" xmlns="http://www.w3.org/2000/svg">
            <path d="M0.514143 1.45842C0.513686 1.22477 0.595061 0.998336 0.744143 0.818424C0.828092 0.717166 0.931193 0.633464 1.04754 0.572112C1.16389 0.51076 1.29119 0.472964 1.42217 0.460888C1.55315 0.448812 1.68522 0.462694 1.81082 0.501739C1.93643 0.540783 2.05309 0.604222 2.15414 0.688424L7.51414 5.16842L12.8841 0.848425C12.9864 0.765359 13.1041 0.703328 13.2305 0.665896C13.3568 0.628464 13.4893 0.61637 13.6203 0.63031C13.7514 0.644249 13.8783 0.683946 13.994 0.747119C14.1096 0.810293 14.2116 0.895698 14.2941 0.998425C14.3852 1.10189 14.4538 1.22306 14.4958 1.35432C14.5378 1.48558 14.5522 1.62411 14.5381 1.7612C14.5241 1.89829 14.4818 2.03099 14.414 2.15098C14.3462 2.27096 14.2543 2.37563 14.1441 2.45843L8.14414 7.28842C7.96521 7.43551 7.74077 7.51591 7.50914 7.51591C7.27752 7.51591 7.05308 7.43551 6.87414 7.28842L0.874144 2.28842C0.753126 2.18811 0.657462 2.06067 0.594913 1.91646C0.532365 1.77225 0.504692 1.61533 0.514143 1.45842Z" fill="white"/>
        </svg>
    </g>
    <g id="emptyStar">
        <svg width="24" height="24" viewBox="0 0 24 24" fill="none" xmlns="http://www.w3.org/2000/svg">
            <path d="M17.56 21C17.4001 21.0006 17.2423 20.9629 17.1 20.89L12 18.22L6.9 20.89C6.73439 20.9771 6.54768 21.016 6.36108 21.0022C6.17448 20.9884 5.99548 20.9226 5.84443 20.8122C5.69338 20.7018 5.57634 20.5512 5.50661 20.3776C5.43689 20.2039 5.41727 20.0142 5.45 19.83L6.45 14.2L2.33 10.2C2.20146 10.0717 2.11027 9.91087 2.06623 9.73469C2.02218 9.55852 2.02694 9.37367 2.08 9.2C2.13796 9.02227 2.24458 8.86435 2.38775 8.74416C2.53092 8.62396 2.70492 8.5463 2.89 8.52L8.59 7.69L11.1 2.56C11.1819 2.39093 11.3097 2.24834 11.4689 2.14857C11.6281 2.0488 11.8121 1.99589 12 1.99589C12.1879 1.99589 12.3719 2.0488 12.5311 2.14857C12.6903 2.24834 12.8181 2.39093 12.9 2.56L15.44 7.68L21.14 8.51C21.3251 8.5363 21.4991 8.61396 21.6423 8.73416C21.7854 8.85435 21.892 9.01227 21.95 9.19C22.0031 9.36367 22.0078 9.54852 21.9638 9.72469C21.9197 9.90087 21.8285 10.0617 21.7 10.19L17.58 14.19L18.58 19.82C18.6157 20.0075 18.597 20.2013 18.5261 20.3784C18.4552 20.5556 18.3351 20.7089 18.18 20.82C17.9989 20.9469 17.7809 21.0102 17.56 21ZM12 16.1C12.1603 16.096 12.3189 16.1339 12.46 16.21L16.23 18.21L15.51 14C15.4821 13.8392 15.4939 13.6741 15.5444 13.519C15.595 13.3638 15.6827 13.2234 15.8 13.11L18.8 10.18L14.6 9.56C14.446 9.52899 14.3014 9.46213 14.1781 9.36483C14.0547 9.26754 13.956 9.14255 13.89 9L12 5.25L10.11 9C10.0376 9.1437 9.93169 9.26783 9.80112 9.36184C9.67055 9.45585 9.51923 9.51696 9.36 9.54L5.16 10.16L8.16 13.09C8.27728 13.2034 8.36502 13.3438 8.41556 13.499C8.46611 13.6541 8.47793 13.8192 8.45 13.98L7.73 18.14L11.5 16.14C11.6597 16.0806 11.8328 16.0668 12 16.1Z" fill="#e5ac39"/>
        </svg>
    </g>
    <g id="fillStar">
        <svg width="24" height="24" viewBox="0 0 24 24" fill="none" xmlns="http://www.w3.org/2000/svg">
        <g clip-path="url(#clip0_5928_5119)">
            <path d="M17.56 21C17.4001 21.0006 17.2423 20.9629 17.1 20.89L12 18.22L6.9 20.89C6.73439 20.9771 6.54768 21.016 6.36108 21.0022C6.17448 20.9884 5.99548 20.9226 5.84443 20.8122C5.69338 20.7018 5.57634 20.5512 5.50661 20.3776C5.43689 20.2039 5.41727 20.0142 5.45 19.83L6.45 14.2L2.33 10.2C2.20146 10.0717 2.11027 9.91087 2.06623 9.73469C2.02218 9.55852 2.02694 9.37367 2.08 9.2C2.13796 9.02227 2.24458 8.86435 2.38775 8.74416C2.53092 8.62396 2.70492 8.5463 2.89 8.52L8.59 7.69L11.1 2.56C11.1819 2.39093 11.3097 2.24834 11.4689 2.14857C11.6281 2.0488 11.8121 1.99589 12 1.99589C12.1879 1.99589 12.3719 2.0488 12.5311 2.14857C12.6903 2.24834 12.8181 2.39093 12.9 2.56L15.44 7.68L21.14 8.51C21.3251 8.5363 21.4991 8.61396 21.6423 8.73416C21.7854 8.85435 21.892 9.01227 21.95 9.19C22.0031 9.36367 22.0078 9.54852 21.9638 9.72469C21.9197 9.90087 21.8285 10.0617 21.7 10.19L17.58 14.19L18.58 19.82C18.6157 20.0075 18.597 20.2013 18.5261 20.3784C18.4552 20.5556 18.3351 20.7089 18.18 20.82C17.9989 20.9469 17.7809 21.0102 17.56 21Z" fill="#e5ac39"/>
        </g>
        <defs>
            <clipPath id="clip0_5928_5119">
                <rect width="24" height="24" fill="#e5ac39"/>
            </clipPath>
        </defs>
    </svg>

    </g>

    <g id="close">
        <svg width="24" height="24" viewBox="0 0 24 24" fill="none" xmlns="http://www.w3.org/2000/svg">
            <g clip-path="url(#clip0_5661_1700)">
                <path d="M13.41 12L17.71 7.71C17.8983 7.5217 18.0041 7.2663 18.0041 7C18.0041 6.7337 17.8983 6.47831 17.71 6.29C17.5217 6.1017 17.2663 5.99591 17 5.99591C16.7337 5.99591 16.4783 6.1017 16.29 6.29L12 10.59L7.71 6.29C7.5217 6.1017 7.2663 5.99591 7 5.99591C6.7337 5.99591 6.4783 6.1017 6.29 6.29C6.1017 6.47831 5.99591 6.7337 5.99591 7C5.99591 7.2663 6.1017 7.5217 6.29 7.71L10.59 12L6.29 16.29C6.19627 16.383 6.12188 16.4936 6.07111 16.6154C6.02034 16.7373 5.9942 16.868 5.9942 17C5.9942 17.132 6.02034 17.2627 6.07111 17.3846C6.12188 17.5064 6.19627 17.617 6.29 17.71C6.38296 17.8037 6.49356 17.8781 6.61542 17.9289C6.73728 17.9797 6.86799 18.0058 7 18.0058C7.13201 18.0058 7.26272 17.9797 7.38458 17.9289C7.50644 17.8781 7.61704 17.8037 7.71 17.71L12 13.41L16.29 17.71C16.383 17.8037 16.4936 17.8781 16.6154 17.9289C16.7373 17.9797 16.868 18.0058 17 18.0058C17.132 18.0058 17.2627 17.9797 17.3846 17.9289C17.5064 17.8781 17.617 17.8037 17.71 17.71C17.8037 17.617 17.8781 17.5064 17.9289 17.3846C17.9797 17.2627 18.0058 17.132 18.0058 17C18.0058 16.868 17.9797 16.7373 17.9289 16.6154C17.8781 16.4936 17.8037 16.383 17.71 16.29L13.41 12Z" fill="white"/>
            </g>
            <defs>
                <clipPath id="clip0_5661_1700">
                    <rect width="24" height="24" fill="white"/>
                </clipPath>
            </defs>
        </svg>

    </g>



</svg>